<?xml version="1.0" ?><svg style="enable-background:new 0 0 61 47.83;" version="1.1" viewBox="0 0 61 47.83" xml:space="preserve" xmlns="http://www.w3.org/2000/svg" xmlns:xlink="http://www.w3.org/1999/xlink"><style type="text/css">
	.st0{fill:#FFFFFF;stroke:#00DCFA;stroke-miterlimit:10;}
	.st1{fill:#FFFFFF;}
	.st2{fill:none;stroke:#00DCFA;stroke-miterlimit:10;}
	.st3{fill:none;stroke:#00DCFA;stroke-linejoin:round;stroke-miterlimit:1;}
	.st4{fill:none;stroke:#00DCFA;stroke-linejoin:round;stroke-miterlimit:10;}
	.st5{fill:none;stroke:#00DCFA;stroke-linecap:round;stroke-linejoin:round;stroke-miterlimit:10;}
</style><g id="Layer_2"/><g id="Layer_1"/><g id="Layer_3"><g><path fill="#00DCFA" d="M57.01,44.98V31.64h-6.42v-3.78H34.83v3.78H22.57v-7v-4.92V16.2h-1.81l1.77-4.04l0.04-5.44h-5.87V0h-1v6.72H9.82v5.24    l1.82,4.24H9.82v3.52v4.92v7H3.99v13.34H0v2.85h61v-2.85H57.01z M35.83,28.86h13.77v2.78H35.83V28.86z M10.82,11.85V7.72h10.75    v4.14l-1.91,4.35h-6.94L10.82,11.85z M10.82,17.2h1.25h8.24h1.25v2.52H10.82V17.2z M10.82,20.72h10.75v2.92H10.82V20.72z     M10.82,24.64h10.75v7H10.82V24.64z M4.99,32.64h4.83h12.75h12.26h15.77h5.42v12.34h-7.72v-6.22h-5.27v6.22H4.99V32.64z     M47.29,39.76v5.22h-3.27v-5.22H47.29z M60,46.83H1v-0.85h2.99h39.04h5.27h8.72H60V46.83z"/><rect fill="#00FA64" height="1" width="8.81" x="11.79" y="9.32"/><rect fill="#00FA64" height="1" width="10.38" x="7.1" y="35.48"/><rect fill="#00FA64" height="1" width="10.38" x="19.24" y="35.48"/><rect fill="#00FA64" height="1" width="10.38" x="31.38" y="35.48"/><rect fill="#00FA64" height="1" width="10.38" x="43.52" y="35.48"/><path fill="#00FA64" d="M6.6,44.03h11.38v-5.27H6.6V44.03z M7.6,39.76h9.38v3.27H7.6V39.76z"/><path fill="#00FA64" d="M18.74,44.03h11.38v-5.27H18.74V44.03z M19.74,39.76h9.38v3.27h-9.38V39.76z"/><path fill="#00FA64" d="M30.88,44.03h11.38v-5.27H30.88V44.03z M31.88,39.76h9.38v3.27h-9.38V39.76z"/><path fill="#00FA64" d="M49.13,44.03h5.27v-5.27h-5.27V44.03z M50.13,39.76h3.27v3.27h-3.27V39.76z"/><path fill="#00FA64" d="M33.21,11.65l2.96,3.79l1.93,4.4l1.23-4.88l4.33-2.19l2.85,10.7l0.94-12.62l2.29-1.16c0.53-0.27,0.93-0.75,1.09-1.32    C51,7.82,50.92,7.2,50.62,6.69c-0.3-0.51-0.81-0.87-1.39-1c-0.58-0.12-1.19,0-1.68,0.34l-2.19,1.53L34.05,2.54l7.85,7.43    l-4.08,2.84L33.21,11.65z M43.48,10.09l-4.52-4.27l6.51,2.89l2.65-1.85c0.26-0.18,0.58-0.25,0.89-0.18    c0.31,0.07,0.58,0.26,0.74,0.53c0.16,0.27,0.21,0.59,0.12,0.9c-0.09,0.31-0.3,0.56-0.58,0.7l-2.79,1.41l-0.54,7.29l-1.65-6.18    l-5.83,2.95l-0.63,2.49l-0.78-1.79l-1.26-1.64l2.22,0.56L43.48,10.09z"/></g></g></svg>